<?xml version="1.0" encoding="utf-8"?>
<!-- Generator: Adobe Illustrator 26.5.0, SVG Export Plug-In . SVG Version: 6.00 Build 0)  -->
<svg version="1.1" id="Layer_1" xmlns="http://www.w3.org/2000/svg" xmlns:xlink="http://www.w3.org/1999/xlink" x="0px" y="0px"
	 viewBox="0 0 10.3 10.5" style="enable-background:new 0 0 10.3 10.5;" xml:space="preserve">
<style type="text/css">
	.st0{fill:#484034;}
</style>
<g>
	<path class="st0" d="M6.3,5.2c0,0.6-0.5,1.2-1.2,1.2c-0.7,0-1.2-0.5-1.2-1.2c0-0.7,0.5-1.2,1.2-1.2C5.7,4.1,6.3,4.6,6.3,5.2z"/>
	<path class="st0" d="M7.1,2.5h-4c-0.5,0-0.8,0.4-0.8,0.8v4c0,0.5,0.4,0.8,0.8,0.8h4c0.5,0,0.8-0.3,0.8-0.8v-4
		C7.9,2.8,7.6,2.5,7.1,2.5z M5.1,7.2C4,7.2,3.2,6.3,3.2,5.2c0-1.1,0.9-1.9,1.9-1.9C6.2,3.3,7,4.2,7,5.2C7,6.3,6.2,7.2,5.1,7.2z
		 M7,3.6c-0.2,0-0.3-0.1-0.3-0.3S6.8,3,7,3s0.3,0.2,0.3,0.3S7.2,3.6,7,3.6z"/>
	<path class="st0" d="M7.3,1.1H3c-1,0-1.9,0.8-1.9,1.9v4.5c0,1,0.8,1.9,1.9,1.9h4.3c1,0,1.9-0.9,1.9-1.9V3C9.2,1.9,8.3,1.1,7.3,1.1z
		 M8.7,7.3c0,0.9-0.7,1.6-1.6,1.6h-4c-0.9,0-1.6-0.7-1.6-1.6v-4c0-0.9,0.7-1.6,1.6-1.6h4c0.9,0,1.6,0.7,1.6,1.6V7.3z"/>
</g>
</svg>
