<?xml version="1.0" encoding="utf-8"?>
<!-- Generator: Adobe Illustrator 26.5.0, SVG Export Plug-In . SVG Version: 6.00 Build 0)  -->
<svg version="1.1" id="Layer_1" xmlns="http://www.w3.org/2000/svg" xmlns:xlink="http://www.w3.org/1999/xlink" x="0px" y="0px"
	 viewBox="0 0 467.7 506" style="enable-background:new 0 0 467.7 506;" xml:space="preserve">
<style type="text/css">
	.st0{fill:#EFE2D1;}
</style>
<g>
	<path class="st0" d="M267.6,253.3c0,19.2-16,34.9-35.2,34.9c-19.2,0-35.2-15.7-35.2-34.9c0-19.2,16-34.9,35.2-34.9
		C251.6,218.4,267.6,234.1,267.6,253.3z"/>
	<path class="st0" d="M292.5,171H173.7c-13.3,0-24.3,10.7-24.3,24v118.7c0,13.3,11,24,24.3,24h118.7c13.6,0,24-10.4,24-24V195
		C316.5,181.4,306.1,171,292.5,171z M232.4,310.5c-31.7,0-57.4-25.5-57.4-57.1c0-31.7,25.8-57.1,57.4-57.1
		c31.7,0,57.4,25.5,57.4,57.1C289.8,285,264,310.5,232.4,310.5z M288.6,205.9c-5.6,0-10.1-4.4-10.1-10.1s4.4-10.1,10.1-10.1
		c5.6,0,10.1,4.4,10.1,10.1S294.2,205.9,288.6,205.9z"/>
	<path class="st0" d="M297.8,130.7H169.9c-31.1,0-56.3,25.2-56.3,56.3V319c0,31.1,25.2,56.3,56.3,56.3h127.9
		c31.1,0,56.3-25.2,56.3-56.3V187C354.1,155.9,328.9,130.7,297.8,130.7z M338.7,313.7c0,25.5-20.7,46.2-46.2,46.2H173.7
		c-25.5,0-46.5-20.7-46.5-46.2V195c0-25.5,21-46.2,46.5-46.2h118.7c25.5,0,46.2,20.7,46.2,46.2V313.7z"/>
</g>
</svg>
